<?xml version="1.0" encoding="UTF-8" standalone="no"?>
<!-- Created with Inkscape (http://www.inkscape.org/) -->

<svg
   width="407.30627mm"
   height="191.84367mm"
   viewBox="0 0 407.30627 191.84367"
   version="1.1"
   id="svg5"
   inkscape:export-filename="logo.png"
   inkscape:export-xdpi="96"
   inkscape:export-ydpi="96"
   inkscape:version="1.2.1 (9c6d41e, 2022-07-14)"
   sodipodi:docname="logo.svg"
   xmlns:inkscape="http://www.inkscape.org/namespaces/inkscape"
   xmlns:sodipodi="http://sodipodi.sourceforge.net/DTD/sodipodi-0.dtd"
   xmlns="http://www.w3.org/2000/svg"
   xmlns:svg="http://www.w3.org/2000/svg">
  <sodipodi:namedview
     id="namedview7"
     pagecolor="#505050"
     bordercolor="#eeeeee"
     borderopacity="1"
     inkscape:showpageshadow="0"
     inkscape:pageopacity="0"
     inkscape:pagecheckerboard="0"
     inkscape:deskcolor="#505050"
     inkscape:document-units="mm"
     showgrid="false"
     inkscape:zoom="0.58788171"
     inkscape:cx="793.52698"
     inkscape:cy="352.96216"
     inkscape:window-width="1470"
     inkscape:window-height="891"
     inkscape:window-x="0"
     inkscape:window-y="37"
     inkscape:window-maximized="0"
     inkscape:current-layer="layer1" />
  <defs
     id="defs2" />
  <g
     inkscape:label="Layer 1"
     inkscape:groupmode="layer"
     id="layer1"
     transform="translate(-196.19124,37.341991)">
    <rect
       style="fill:#ffffff;stroke-width:1.27516"
       id="rect473"
       width="407.30627"
       height="191.84367"
       x="196.19124"
       y="-37.341991" />
    <g
       id="g417"
       transform="translate(3.9961925,3.5457913)">
      <g
         aria-label="YAJT"
         id="text574"
         style="font-weight:bold;font-size:146.597px;font-family:Baskerville;-inkscape-font-specification:'Baskerville, Bold';fill:#aa87de;stroke-width:35.3399"
         transform="translate(10.583333)">
        <path
           d="M 404.2284,-5.4846672 V -13.43011 h 52.46856 v 7.9454428 q -7.80228,0 -10.37918,2.3621586 -2.5769,2.36215873 -2.5769,9.5202149 V 75.974017 q 0,14.960339 -3.07797,23.263686 -3.00638,8.303337 -12.24028,13.600307 -9.23389,5.36854 -23.26368,5.36854 -11.45289,0 -18.53937,-3.93693 -7.08647,-3.86535 -7.08647,-10.52235 0,-4.724307 3.72219,-7.587537 3.72219,-2.863217 8.80441,-2.863217 4.93906,0 7.87386,2.362157 2.9348,2.36216 2.9348,6.442247 0,1.21687 -0.57264,3.14955 -0.35791,1.14528 -0.35791,1.71793 0,3.29271 5.44013,3.29271 6.08435,0 8.51809,-5.36855 2.50532,-5.368537 2.50532,-22.333131 V 6.3977063 q 0,-6.65699267 -2.29058,-9.2338926 -2.219,-2.6484809 -9.37706,-2.6484809 z"
           id="path630"
           style="fill:#aa87de" />
      </g>
      <text
         xml:space="preserve"
         style="font-style:normal;font-variant:normal;font-weight:bold;font-stretch:normal;font-size:146.597px;font-family:Baskerville;-inkscape-font-specification:'Baskerville, Bold';font-variant-ligatures:normal;font-variant-caps:normal;font-variant-numeric:normal;font-variant-east-asian:normal;fill:#000000;stroke-width:35.3399"
         x="226.20224"
         y="88.924805"
         id="text342"><tspan
           sodipodi:role="line"
           id="tspan340"
           style="font-style:normal;font-variant:normal;font-weight:bold;font-stretch:normal;font-size:146.597px;font-family:Baskerville;-inkscape-font-specification:'Baskerville, Bold';font-variant-ligatures:normal;font-variant-caps:normal;font-variant-numeric:normal;font-variant-east-asian:normal;fill:#000000;stroke-width:35.3399"
           x="226.20224"
           y="88.924805">YAJT</tspan></text>
    </g>
  </g>
</svg>
