<svg xmlns="http://www.w3.org/2000/svg" width="256" height="256" viewBox="0 0 100 100"><rect width="100" height="100" rx="20" fill="#7d6ee7"></rect><path fill="#fff" d="M72.59 25.21L72.59 25.21Q72.59 26.20 71.24 29.03Q69.89 31.87 67.46 36.10Q65.03 40.33 61.66 45.73Q58.28 51.13 54.23 57.16L54.23 57.16L54.23 77.22Q53.78 77.41 52.83 77.63Q51.89 77.86 50.90 77.86L50.90 77.86Q46.94 77.86 46.94 74.53L46.94 74.53L46.94 57.16Q44.42 53.47 41.77 49.33Q39.11 45.19 36.50 40.96Q33.89 36.73 31.55 32.68Q29.21 28.63 27.41 25.03L27.41 25.03Q27.77 24.04 28.76 23.09Q29.75 22.15 31.37 22.15L31.37 22.15Q33.08 22.15 34.02 23.05Q34.97 23.95 35.96 25.75L35.96 25.75Q37.40 28.27 39.34 31.69Q41.27 35.11 43.30 38.62Q45.32 42.13 47.21 45.41Q49.10 48.70 50.45 50.86L50.45 50.86L50.81 50.86Q55.49 43.03 59.14 36.28Q62.78 29.53 66.38 22.78L66.38 22.78Q66.92 22.42 67.69 22.28Q68.45 22.15 69.17 22.15L69.17 22.15Q72.59 22.15 72.59 25.21Z"></path></svg>